<svg xmlns="http://www.w3.org/2000/svg" width="96.699" height="109.246" viewBox="0 0 96.699 109.246"><g id="Groupe_345" data-name="Groupe 345" transform="translate(-516.765 -1643.253)"><path id="Trac&#xE9;_323" data-name="Trac&#xE9; 323" d="M85.716,131.051V84.224a7.8,7.8,0,0,1,3.9-6.752l40.553-23.414a7.8,7.8,0,0,1,7.8,0l40.554,23.414a7.8,7.8,0,0,1,3.9,6.752v46.827a7.8,7.8,0,0,1-3.9,6.752l-40.554,23.414a7.8,7.8,0,0,1-7.8,0L89.614,137.8A7.8,7.8,0,0,1,85.716,131.051Z" transform="translate(431.049 1590.239)" fill="#cd1719"></path><text id="Ann&#xE9;e_2" data-name="Ann&#xE9;e 2" transform="translate(563.771 1705)" fill="#fff" font-size="18" font-family="SegoeUI-Light, Segoe UI" font-weight="300"><tspan x="-31.482" y="0">Année 2</tspan></text></g></svg>